<svg xmlns="http://www.w3.org/2000/svg" style="display:none">
<symbol id="user-plus" viewBox="0 0 24 24"><path d="M15 21v-2a4 4 0 0 0-4-4H6a4 4 0 0 0-4 4v2" fill="none" stroke="currentColor" stroke-width="1.8" stroke-linecap="round"/><circle cx="8.5" cy="7" r="4" fill="none" stroke="currentColor" stroke-width="1.8"/><path d="M19 8v6M16 11h6" fill="none" stroke="currentColor" stroke-width="1.8" stroke-linecap="round"/></symbol>
<symbol id="phone" viewBox="0 0 24 24"><path d="M22 16.9v3a2 2 0 0 1-2.2 2 19.7 19.7 0 0 1-8.6-3.1 19.4 19.4 0 0 1-6-6A19.7 19.7 0 0 1 2.1 4.2 2 2 0 0 1 4.1 2h3a2 2 0 0 1 2 1.7c.1 1 .4 2 .7 2.8a2 2 0 0 1-.5 2.1L8.1 9.9a16 16 0 0 0 6 6l1.3-1.2a2 2 0 0 1 2.1-.5c.9.3 1.8.6 2.8.7A2 2 0 0 1 22 16.9z" fill="none" stroke="currentColor" stroke-width="1.8" stroke-linecap="round" stroke-linejoin="round"/></symbol>
<symbol id="mail" viewBox="0 0 24 24"><rect x="3" y="5" width="18" height="14" rx="2" fill="none" stroke="currentColor" stroke-width="1.8"/><path d="m3 7 9 7 9-7" fill="none" stroke="currentColor" stroke-width="1.8" stroke-linecap="round" stroke-linejoin="round"/></symbol>
<symbol id="linkedin" viewBox="0 0 24 24"><rect x="3" y="3" width="18" height="18" rx="3" fill="none" stroke="currentColor" stroke-width="1.8"/><path d="M8 10v7M8 7v.01M12 17v-4a3 3 0 0 1 6 0v4M12 10v7" fill="none" stroke="currentColor" stroke-width="1.8" stroke-linecap="round"/></symbol>
</svg>